{
    "asset" : {
        "generator" : "Khronos glTF Blender I/O v3.3.27",
        "version" : "2.0"
    },
    "extensionsUsed" : [
        "KHR_materials_specular",
        "KHR_materials_ior"
    ],
    "scene" : 0,
    "scenes" : [
        {
            "name" : "Scene",
            "nodes" : [
                0,
                1,
                2,
                3
            ]
        }
    ],
    "nodes" : [
        {
            "mesh" : 0,
            "name" : "Club",
            "rotation" : [
                -0.14182493090629578,
                0.6774776577949524,
                0.14131198823451996,
                0.7077715992927551
            ],
            "scale" : [
                1,
                1,
                0.6107868552207947
            ],
            "translation" : [
                -3.1553022861480713,
                0.7356076836585999,
                -0.3518218994140625
            ]
        },
        {
            "mesh" : 1,
            "name" : "Ball",
            "rotation" : [
                0,
                0.7071068286895752,
                0,
                0.7071068286895752
            ],
            "scale" : [
                0.4466112554073334,
                0.4466112554073334,
                0.4466112554073334
            ],
            "translation" : [
                -0.0013263523578643799,
                0.055074162781238556,
                0.0006737112998962402
            ]
        },
        {
            "mesh" : 2,
            "name" : "BezierCurve",
            "translation" : [
                -0.9689652323722839,
                -0.006356827914714813,
                0.2619380056858063
            ]
        },
        {
            "mesh" : 3,
            "name" : "Grass",
            "rotation" : [
                0,
                0,
                0.00016068878176156431,
                1
            ],
            "translation" : [
                -4.058837890625,
                -0.40005072951316833,
                1.6860648393630981
            ]
        }
    ],
    "animations" : [
        {
            "channels" : [
                {
                    "sampler" : 0,
                    "target" : {
                        "node" : 0,
                        "path" : "translation"
                    }
                },
                {
                    "sampler" : 1,
                    "target" : {
                        "node" : 0,
                        "path" : "rotation"
                    }
                },
                {
                    "sampler" : 2,
                    "target" : {
                        "node" : 0,
                        "path" : "scale"
                    }
                }
            ],
            "name" : "StraightPath",
            "samplers" : [
                {
                    "input" : 28,
                    "interpolation" : "LINEAR",
                    "output" : 29
                },
                {
                    "input" : 28,
                    "interpolation" : "LINEAR",
                    "output" : 30
                },
                {
                    "input" : 28,
                    "interpolation" : "LINEAR",
                    "output" : 31
                }
            ]
        },
        {
            "channels" : [
                {
                    "sampler" : 0,
                    "target" : {
                        "node" : 1,
                        "path" : "translation"
                    }
                },
                {
                    "sampler" : 1,
                    "target" : {
                        "node" : 1,
                        "path" : "rotation"
                    }
                },
                {
                    "sampler" : 2,
                    "target" : {
                        "node" : 1,
                        "path" : "scale"
                    }
                }
            ],
            "name" : "StraightBall",
            "samplers" : [
                {
                    "input" : 32,
                    "interpolation" : "LINEAR",
                    "output" : 33
                },
                {
                    "input" : 32,
                    "interpolation" : "LINEAR",
                    "output" : 34
                },
                {
                    "input" : 32,
                    "interpolation" : "LINEAR",
                    "output" : 35
                }
            ]
        }
    ],
    "materials" : [
        {
            "doubleSided" : true,
            "extensions" : {
                "KHR_materials_specular" : {
                    "specularColorFactor" : [
                        2.0446429617760034,
                        2.0446429617760034,
                        2.0446429617760034
                    ]
                },
                "KHR_materials_ior" : {
                    "ior" : 1.4500000476837158
                }
            },
            "name" : "Material",
            "pbrMetallicRoughness" : {
                "metallicFactor" : 0.16487151384353638,
                "roughnessFactor" : 0.4210197329521179
            }
        },
        {
            "doubleSided" : true,
            "extensions" : {
                "KHR_materials_specular" : {
                    "specularColorFactor" : [
                        0.5322113036933015,
                        0.5322113036933015,
                        0.5322113036933015
                    ]
                },
                "KHR_materials_ior" : {
                    "ior" : 1.4500000476837158
                }
            },
            "name" : "Brushed",
            "pbrMetallicRoughness" : {
                "baseColorFactor" : [
                    0.8549585342407227,
                    0.8549585342407227,
                    0.8549585342407227,
                    1
                ],
                "metallicFactor" : 0.058866024017333984
            }
        },
        {
            "doubleSided" : true,
            "name" : "Ferrel",
            "pbrMetallicRoughness" : {
                "baseColorFactor" : [
                    0.012217087671160698,
                    0.012217087671160698,
                    0.012217087671160698,
                    1
                ],
                "metallicFactor" : 0,
                "roughnessFactor" : 0.5
            }
        },
        {
            "doubleSided" : true,
            "name" : "Grip",
            "pbrMetallicRoughness" : {
                "baseColorFactor" : [
                    0.005604901351034641,
                    0.005604901351034641,
                    0.005604901351034641,
                    1
                ],
                "metallicFactor" : 0,
                "roughnessFactor" : 0.8943662047386169
            }
        },
        {
            "doubleSided" : true,
            "name" : "Material.001",
            "pbrMetallicRoughness" : {
                "metallicFactor" : 0,
                "roughnessFactor" : 0.8665158152580261
            }
        },
        {
            "doubleSided" : true,
            "name" : "Material.002",
            "pbrMetallicRoughness" : {
                "baseColorFactor" : [
                    1,
                    0.3890312612056732,
                    0.06463059037923813,
                    1
                ],
                "metallicFactor" : 0,
                "roughnessFactor" : 0.5
            }
        },
        {
            "doubleSided" : true,
            "name" : "Grass",
            "pbrMetallicRoughness" : {
                "baseColorFactor" : [
                    0.061674684286117554,
                    0.6859307289123535,
                    0.04725552350282669,
                    1
                ],
                "metallicFactor" : 0,
                "roughnessFactor" : 0.5
            }
        }
    ],
    "meshes" : [
        {
            "name" : "Cube",
            "primitives" : [
                {
                    "attributes" : {
                        "POSITION" : 0,
                        "NORMAL" : 1,
                        "TEXCOORD_0" : 2
                    },
                    "indices" : 3,
                    "material" : 0
                },
                {
                    "attributes" : {
                        "POSITION" : 4,
                        "NORMAL" : 5,
                        "TEXCOORD_0" : 6
                    },
                    "indices" : 7,
                    "material" : 1
                },
                {
                    "attributes" : {
                        "POSITION" : 8,
                        "NORMAL" : 9,
                        "TEXCOORD_0" : 10
                    },
                    "indices" : 11,
                    "material" : 2
                },
                {
                    "attributes" : {
                        "POSITION" : 12,
                        "NORMAL" : 13,
                        "TEXCOORD_0" : 14
                    },
                    "indices" : 15,
                    "material" : 3
                }
            ]
        },
        {
            "name" : "Icosphere",
            "primitives" : [
                {
                    "attributes" : {
                        "POSITION" : 16,
                        "NORMAL" : 17,
                        "TEXCOORD_0" : 18
                    },
                    "indices" : 19,
                    "material" : 4
                }
            ]
        },
        {
            "name" : "BezierCurve",
            "primitives" : [
                {
                    "attributes" : {
                        "POSITION" : 20,
                        "NORMAL" : 21,
                        "TEXCOORD_0" : 22
                    },
                    "indices" : 23,
                    "material" : 5
                }
            ]
        },
        {
            "name" : "Plane.001",
            "primitives" : [
                {
                    "attributes" : {
                        "POSITION" : 24,
                        "NORMAL" : 25,
                        "TEXCOORD_0" : 26
                    },
                    "indices" : 27,
                    "material" : 6
                }
            ]
        }
    ],
    "accessors" : [
        {
            "bufferView" : 0,
            "componentType" : 5126,
            "count" : 1235,
            "max" : [
                6.721913814544678,
                10.26078987121582,
                12.547961235046387
            ],
            "min" : [
                -1.4750518798828125,
                -0.7976060509681702,
                -0.7871403098106384
            ],
            "type" : "VEC3"
        },
        {
            "bufferView" : 1,
            "componentType" : 5126,
            "count" : 1235,
            "type" : "VEC3"
        },
        {
            "bufferView" : 2,
            "componentType" : 5126,
            "count" : 1235,
            "type" : "VEC2"
        },
        {
            "bufferView" : 3,
            "componentType" : 5123,
            "count" : 3486,
            "type" : "SCALAR"
        },
        {
            "bufferView" : 4,
            "componentType" : 5126,
            "count" : 363,
            "max" : [
                0.8742271661758423,
                1.0764111280441284,
                0.05456438660621643
            ],
            "min" : [
                -0.954683244228363,
                -0.772605299949646,
                -0.07099409401416779
            ],
            "type" : "VEC3"
        },
        {
            "bufferView" : 5,
            "componentType" : 5126,
            "count" : 363,
            "type" : "VEC3"
        },
        {
            "bufferView" : 6,
            "componentType" : 5126,
            "count" : 363,
            "type" : "VEC2"
        },
        {
            "bufferView" : 7,
            "componentType" : 5123,
            "count" : 756,
            "type" : "SCALAR"
        },
        {
            "bufferView" : 8,
            "componentType" : 5126,
            "count" : 37,
            "max" : [
                2.3321242332458496,
                1.2791658639907837,
                1.772977590560913
            ],
            "min" : [
                1.8216114044189453,
                0.6620979905128479,
                0.8504803776741028
            ],
            "type" : "VEC3"
        },
        {
            "bufferView" : 9,
            "componentType" : 5126,
            "count" : 37,
            "type" : "VEC3"
        },
        {
            "bufferView" : 10,
            "componentType" : 5126,
            "count" : 37,
            "type" : "VEC2"
        },
        {
            "bufferView" : 11,
            "componentType" : 5123,
            "count" : 96,
            "type" : "SCALAR"
        },
        {
            "bufferView" : 12,
            "componentType" : 5126,
            "count" : 104,
            "max" : [
                9.134016990661621,
                14.95447826385498,
                18.194812774658203
            ],
            "min" : [
                6.284240245819092,
                9.94232177734375,
                12.039149284362793
            ],
            "type" : "VEC3"
        },
        {
            "bufferView" : 13,
            "componentType" : 5126,
            "count" : 104,
            "type" : "VEC3"
        },
        {
            "bufferView" : 14,
            "componentType" : 5126,
            "count" : 104,
            "type" : "VEC2"
        },
        {
            "bufferView" : 15,
            "componentType" : 5123,
            "count" : 348,
            "type" : "SCALAR"
        },
        {
            "bufferView" : 16,
            "componentType" : 5126,
            "count" : 5120,
            "max" : [
                0.991136908531189,
                0.9946699738502502,
                0.9912756681442261
            ],
            "min" : [
                -0.9911369681358337,
                -0.994670033454895,
                -0.9912756681442261
            ],
            "type" : "VEC3"
        },
        {
            "bufferView" : 17,
            "componentType" : 5126,
            "count" : 5120,
            "type" : "VEC3"
        },
        {
            "bufferView" : 18,
            "componentType" : 5126,
            "count" : 5120,
            "type" : "VEC2"
        },
        {
            "bufferView" : 19,
            "componentType" : 5123,
            "count" : 30708,
            "type" : "SCALAR"
        },
        {
            "bufferView" : 20,
            "componentType" : 5126,
            "count" : 394,
            "max" : [
                7.835927963256836,
                2.0673646926879883,
                -0.20395132899284363
            ],
            "min" : [
                -3.7491421699523926,
                -0.0548459030687809,
                -1.2898578643798828
            ],
            "type" : "VEC3"
        },
        {
            "bufferView" : 21,
            "componentType" : 5126,
            "count" : 394,
            "type" : "VEC3"
        },
        {
            "bufferView" : 22,
            "componentType" : 5126,
            "count" : 394,
            "type" : "VEC2"
        },
        {
            "bufferView" : 23,
            "componentType" : 5123,
            "count" : 2352,
            "type" : "SCALAR"
        },
        {
            "bufferView" : 24,
            "componentType" : 5126,
            "count" : 60268,
            "max" : [
                9.713188171386719,
                0.4311676025390625,
                1.0590169429779053
            ],
            "min" : [
                -1.0921217203140259,
                -0.1281251162290573,
                -5.19974422454834
            ],
            "type" : "VEC3"
        },
        {
            "bufferView" : 25,
            "componentType" : 5126,
            "count" : 60268,
            "type" : "VEC3"
        },
        {
            "bufferView" : 26,
            "componentType" : 5126,
            "count" : 60268,
            "type" : "VEC2"
        },
        {
            "bufferView" : 27,
            "componentType" : 5123,
            "count" : 75420,
            "type" : "SCALAR"
        },
        {
            "bufferView" : 28,
            "componentType" : 5126,
            "count" : 72,
            "max" : [
                3
            ],
            "min" : [
                0.041666666666666664
            ],
            "type" : "SCALAR"
        },
        {
            "bufferView" : 29,
            "componentType" : 5126,
            "count" : 72,
            "type" : "VEC3"
        },
        {
            "bufferView" : 30,
            "componentType" : 5126,
            "count" : 72,
            "type" : "VEC4"
        },
        {
            "bufferView" : 31,
            "componentType" : 5126,
            "count" : 72,
            "type" : "VEC3"
        },
        {
            "bufferView" : 32,
            "componentType" : 5126,
            "count" : 50,
            "max" : [
                3
            ],
            "min" : [
                0.9583333333333334
            ],
            "type" : "SCALAR"
        },
        {
            "bufferView" : 33,
            "componentType" : 5126,
            "count" : 50,
            "type" : "VEC3"
        },
        {
            "bufferView" : 34,
            "componentType" : 5126,
            "count" : 50,
            "type" : "VEC4"
        },
        {
            "bufferView" : 35,
            "componentType" : 5126,
            "count" : 50,
            "type" : "VEC3"
        }
    ],
    "bufferViews" : [
        {
            "buffer" : 0,
            "byteLength" : 14820,
            "byteOffset" : 0,
            "target" : 34962
        },
        {
            "buffer" : 0,
            "byteLength" : 14820,
            "byteOffset" : 14820,
            "target" : 34962
        },
        {
            "buffer" : 0,
            "byteLength" : 9880,
            "byteOffset" : 29640,
            "target" : 34962
        },
        {
            "buffer" : 0,
            "byteLength" : 6972,
            "byteOffset" : 39520,
            "target" : 34963
        },
        {
            "buffer" : 0,
            "byteLength" : 4356,
            "byteOffset" : 46492,
            "target" : 34962
        },
        {
            "buffer" : 0,
            "byteLength" : 4356,
            "byteOffset" : 50848,
            "target" : 34962
        },
        {
            "buffer" : 0,
            "byteLength" : 2904,
            "byteOffset" : 55204,
            "target" : 34962
        },
        {
            "buffer" : 0,
            "byteLength" : 1512,
            "byteOffset" : 58108,
            "target" : 34963
        },
        {
            "buffer" : 0,
            "byteLength" : 444,
            "byteOffset" : 59620,
            "target" : 34962
        },
        {
            "buffer" : 0,
            "byteLength" : 444,
            "byteOffset" : 60064,
            "target" : 34962
        },
        {
            "buffer" : 0,
            "byteLength" : 296,
            "byteOffset" : 60508,
            "target" : 34962
        },
        {
            "buffer" : 0,
            "byteLength" : 192,
            "byteOffset" : 60804,
            "target" : 34963
        },
        {
            "buffer" : 0,
            "byteLength" : 1248,
            "byteOffset" : 60996,
            "target" : 34962
        },
        {
            "buffer" : 0,
            "byteLength" : 1248,
            "byteOffset" : 62244,
            "target" : 34962
        },
        {
            "buffer" : 0,
            "byteLength" : 832,
            "byteOffset" : 63492,
            "target" : 34962
        },
        {
            "buffer" : 0,
            "byteLength" : 696,
            "byteOffset" : 64324,
            "target" : 34963
        },
        {
            "buffer" : 0,
            "byteLength" : 61440,
            "byteOffset" : 65020,
            "target" : 34962
        },
        {
            "buffer" : 0,
            "byteLength" : 61440,
            "byteOffset" : 126460,
            "target" : 34962
        },
        {
            "buffer" : 0,
            "byteLength" : 40960,
            "byteOffset" : 187900,
            "target" : 34962
        },
        {
            "buffer" : 0,
            "byteLength" : 61416,
            "byteOffset" : 228860,
            "target" : 34963
        },
        {
            "buffer" : 0,
            "byteLength" : 4728,
            "byteOffset" : 290276,
            "target" : 34962
        },
        {
            "buffer" : 0,
            "byteLength" : 4728,
            "byteOffset" : 295004,
            "target" : 34962
        },
        {
            "buffer" : 0,
            "byteLength" : 3152,
            "byteOffset" : 299732,
            "target" : 34962
        },
        {
            "buffer" : 0,
            "byteLength" : 4704,
            "byteOffset" : 302884,
            "target" : 34963
        },
        {
            "buffer" : 0,
            "byteLength" : 723216,
            "byteOffset" : 307588,
            "target" : 34962
        },
        {
            "buffer" : 0,
            "byteLength" : 723216,
            "byteOffset" : 1030804,
            "target" : 34962
        },
        {
            "buffer" : 0,
            "byteLength" : 482144,
            "byteOffset" : 1754020,
            "target" : 34962
        },
        {
            "buffer" : 0,
            "byteLength" : 150840,
            "byteOffset" : 2236164,
            "target" : 34963
        },
        {
            "buffer" : 0,
            "byteLength" : 288,
            "byteOffset" : 2387004
        },
        {
            "buffer" : 0,
            "byteLength" : 864,
            "byteOffset" : 2387292
        },
        {
            "buffer" : 0,
            "byteLength" : 1152,
            "byteOffset" : 2388156
        },
        {
            "buffer" : 0,
            "byteLength" : 864,
            "byteOffset" : 2389308
        },
        {
            "buffer" : 0,
            "byteLength" : 200,
            "byteOffset" : 2390172
        },
        {
            "buffer" : 0,
            "byteLength" : 600,
            "byteOffset" : 2390372
        },
        {
            "buffer" : 0,
            "byteLength" : 800,
            "byteOffset" : 2390972
        },
        {
            "buffer" : 0,
            "byteLength" : 600,
            "byteOffset" : 2391772
        }
    ],
    "buffers" : [
        {
            "byteLength" : 2392372,
            "uri" : "data:application/octet-stream;base64,"
        }
    ]
}
